<svg width="512" height="512" viewBox="0 0 512 512" fill="none" xmlns="http://www.w3.org/2000/svg">
<rect width="512" height="512" fill="black"/>
<rect width="512" height="512" fill="#EFEFEF"/>
<path d="M141.99 90.25C143.32 93.67 145.79 95.95 147.88 98.04C152.63 104.31 157.57 110.2 164.03 116.47C165.17 117.42 167.64 119.89 166.88 119.89C168.4 119.89 171.44 114.57 173.15 110.96C175.62 106.59 179.04 100.51 179.04 93.29C178.47 88.54 174.86 87.97 176 82.65C180.56 79.8 183.03 83.41 184.36 87.4C184.74 88.54 185.5 90.44 185.88 90.82C187.02 102.6 177.71 117.8 172.01 124.45C174.48 127.11 177.14 128.63 179.61 130.72C180.56 131.48 180.94 132.62 181.7 133.19C183.03 134.33 184.74 135.28 186.07 136.04C187.59 137.18 191.77 138.51 190.63 142.69C186.83 144.59 183.03 141.93 180.37 140.03C179.8 139.46 178.85 138.51 178.09 138.13C177.33 137.18 175.62 136.61 175.05 136.04C173.15 134.52 170.49 131.67 168.21 129.77C166.88 129.77 165.74 130.72 165.17 131.48C163.65 132.62 163.27 133.19 161.37 134.52C160.61 134.71 159.66 135.47 158.9 136.04C157.95 136.61 156.24 138.32 155.1 138.89C154.34 139.46 153.2 139.46 152.06 140.03C143.89 144.59 131.16 150.1 119.19 150.1C106.27 149.72 94.49 141.74 98.48 127.3C98.86 125.97 99.05 124.07 99.43 122.55C100 121.6 101.9 119.13 102.47 117.61C104.18 115.71 105.51 114.57 106.84 113.05C107.41 112.1 107.03 111.72 107.41 110.96C114.82 104.31 125.46 94.81 133.44 89.3C129.83 80.56 126.98 72.58 131.54 63.65C132.3 61.37 133.82 59.85 134.96 58.33C135.15 58.33 135.34 57.38 135.53 57.19C135.91 57.19 136.67 57.38 137.05 57.19C137.05 57.19 136.67 56.05 137.05 56.05C137.24 55.67 138.57 55.29 139.14 54.72C145.6 51.11 157.95 47.12 169.92 48.83C171.82 49.59 176 51.11 177.14 52.82C177.71 53.77 177.71 53.96 177.71 54.34C177.71 54.34 178.47 56.62 178.66 57.57C178.28 65.55 167.64 72.58 162.51 76.38C155.1 81.89 149.02 85.69 141.99 90.25ZM142.75 59.47C141.42 60.23 140.28 62.13 139.52 62.89C139.52 63.08 138.57 63.08 138.19 63.65C137.24 65.17 136.1 67.83 136.1 69.35C134.96 75.43 137.24 81.89 139.33 85.31C147.88 78.66 157.19 73.34 164.98 66.5C167.45 64.22 171.44 62.13 171.63 57.57C164.79 52.82 148.64 56.05 142.75 59.47ZM136.86 94.81C130.78 98.8 124.89 103.55 118.24 110.2C112.35 115.71 105.89 121.98 104.75 127.87C103.61 131.86 104.18 134.52 104.75 136.04C105.51 137.37 106.65 138.13 107.41 138.51C107.41 138.51 107.79 139.46 108.17 139.46C110.26 141.74 115.2 142.88 119.19 142.88C130.59 143.64 143.32 137.56 150.92 133.19C153.01 132.43 154.15 131.48 156.05 130.53C158.33 128.82 161.37 126.92 162.32 124.45C153.2 115.52 144.27 105.26 136.86 94.81Z" fill="#3E3E3E"/>
<path d="M321.4 250.8C325.667 255.067 329.667 259.067 333.4 262.8C337.133 266 340.867 269.733 344.6 274C375.533 307.6 379.533 343.067 356.6 380.4C343.8 401.733 328.333 419.6 310.2 434C292.6 448.4 271.8 458.8 247.8 465.2C237.133 468.4 227.533 469.2 219 467.6C210.467 465.467 203.533 461.733 198.2 456.4C192.333 450.533 188.333 443.067 186.2 434C183.533 424.933 183.267 414.8 185.4 403.6C187 391.867 189.933 380.933 194.2 370.8C198.467 360.133 203.533 349.733 209.4 339.6C219 323.6 229.133 308.133 239.8 293.2C251 278.267 263.8 264.133 278.2 250.8C275.533 248.667 273.133 246.533 271 244.4C269.4 242.267 267.533 240.133 265.4 238C260.6 232.667 255.8 227.6 251 222.8C246.733 218 242.733 212.667 239 206.8C230.467 193.467 226.2 180.133 226.2 166.8C226.2 152.933 230.733 139.333 239.8 126C253.133 105.733 268.867 90.2667 287 79.6C305.133 68.4 325.933 62.8 349.4 62.8C366.467 62.2666 379.267 67.6 387.8 78.8C396.333 89.4666 399.267 103.333 396.6 120.4C393.933 136.4 389.4 151.067 383 164.4C377.133 177.733 369.667 190.533 360.6 202.8C354.2 210.8 347.8 218.8 341.4 226.8C335 234.267 328.333 242.267 321.4 250.8ZM309.4 268.4C298.733 269.467 290.733 272.133 285.4 276.4C280.067 280.133 275.267 284.933 271 290.8C263 303.067 255 315.067 247 326.8C239.533 338.533 232.067 350.533 224.6 362.8C220.333 370.8 216.867 379.067 214.2 387.6C212.067 396.133 210.2 404.933 208.6 414C206.467 424.667 208.333 432.667 214.2 438C220.067 443.333 228.067 444.667 238.2 442C285.667 429.2 320.333 400.133 342.2 354.8C350.2 336.133 348.067 318.533 335.8 302C331.533 296.133 327 290.533 322.2 285.2C317.933 279.333 313.667 273.733 309.4 268.4ZM300.6 237.2C313.4 223.333 324.867 209.733 335 196.4C345.667 182.533 354.733 167.867 362.2 152.4C364.867 146.533 367 140.133 368.6 133.2C370.2 126.267 371.533 119.333 372.6 112.4C375.267 96.9333 368.067 88.4 351 86.8C346.2 86.2666 340.6 86.8 334.2 88.4C304.333 94.8 280.6 110 263 134C245.933 156.933 245.933 178.8 263 199.6C268.333 206.533 273.933 212.933 279.8 218.8C286.2 224.133 293.133 230.267 300.6 237.2Z" fill="#3E3E3E"/>
</svg>
